<svg width="185" height="1311" viewBox="0 0 185 1311" fill="none" xmlns="http://www.w3.org/2000/svg">
<path d="M75.3751 1252.87C91.5418 1252.87 106.292 1255.62 119.625 1261.12C132.958 1266.54 144.458 1274.25 154.125 1284.25C163.792 1294.25 171.208 1306.04 176.375 1319.62C181.542 1333.21 184.042 1348.12 183.875 1364.37L183.75 1364.37C181.583 1344.21 175.417 1327.75 165.25 1315C155.083 1302.17 141.458 1292.71 124.375 1286.62C107.292 1280.54 87.2501 1277.5 64.2501 1277.5L64.2501 1277.62C50.1668 1277.62 38.4585 1279.17 29.1251 1282.25C19.7918 1285.25 12.7918 1289.5 8.12512 1295C3.45845 1300.42 1.12512 1306.71 1.12512 1313.87C1.12512 1320.62 3.33345 1326.5 7.75012 1331.5C12.1668 1336.5 18.2085 1340.37 25.8751 1343.12C33.5418 1345.87 42.2501 1347.25 52.0001 1347.25C67.0835 1347.25 78.8751 1344.04 87.3751 1337.62C95.7918 1331.12 100 1322.46 100 1311.62C100 1301.71 96.7918 1293.58 90.3751 1287.25C83.8751 1280.83 75.1668 1277.62 64.2501 1277.62L64.2501 1277.5C73.2501 1277.5 81.1668 1279.37 88.0001 1283.12C94.8335 1286.79 100.167 1292.04 104 1298.87C107.833 1305.62 109.75 1313.71 109.75 1323.12C109.75 1332.62 107.667 1341.04 103.5 1348.37C99.2501 1355.71 93.2918 1361.5 85.6251 1365.75C77.9585 1369.92 69.0418 1372 58.8751 1372C49.0418 1372 40.5001 1370.25 33.2501 1366.75C25.9168 1363.17 19.8751 1358.5 15.1251 1352.75C10.2918 1347 6.70845 1340.75 4.37512 1334C1.95845 1327.17 0.750119 1320.46 0.750119 1313.87C0.750119 1302.54 3.66678 1292.29 9.50012 1283.12C15.2501 1273.87 23.6668 1266.54 34.7501 1261.12C45.8334 1255.62 59.3751 1252.87 75.3751 1252.87ZM184.75 1114.05C184.75 1122.47 182.833 1130.51 179 1138.17C175.083 1145.84 169.292 1152.67 161.625 1158.67C153.958 1164.67 144.417 1169.42 133 1172.92C121.5 1176.34 108.125 1178.05 92.8751 1178.05C77.2084 1178.05 63.5834 1176.34 52.0001 1172.92C40.4168 1169.42 30.8334 1164.72 23.2501 1158.8C15.6668 1152.8 10.0418 1146.05 6.37511 1138.55C2.62511 1131.05 0.750111 1123.22 0.75011 1115.05C0.75011 1106.55 2.70844 1098.47 6.62511 1090.8C10.4584 1083.05 16.2501 1076.22 24.0001 1070.3C31.6668 1064.3 41.2501 1059.59 52.7501 1056.17C64.1668 1052.76 77.4584 1051.05 92.6251 1051.05C108.292 1051.05 121.917 1052.76 133.5 1056.17C145.083 1059.59 154.667 1064.26 162.25 1070.17C169.833 1076.01 175.5 1082.72 179.25 1090.3C182.917 1097.88 184.75 1105.8 184.75 1114.05ZM184.375 1114.05C184.375 1108.05 182.708 1102.8 179.375 1098.3C176.042 1093.72 170.875 1089.88 163.875 1086.8C156.792 1083.72 147.75 1081.42 136.75 1079.92C125.75 1078.34 112.625 1077.55 97.3751 1077.55C81.7084 1077.55 67.9168 1078.38 56.0001 1080.05C44.0001 1081.63 33.9584 1084.01 25.8751 1087.17C17.7084 1090.34 11.5418 1094.26 7.37511 1098.93C3.20844 1103.59 1.12511 1108.97 1.12511 1115.05C1.12511 1120.88 2.79178 1126.09 6.12511 1130.68C9.45844 1135.17 14.6668 1139.01 21.7501 1142.17C28.7501 1145.26 37.7501 1147.59 48.7501 1149.17C59.7501 1150.76 72.8751 1151.55 88.1251 1151.55C103.708 1151.55 117.5 1150.72 129.5 1149.05C141.5 1147.38 151.583 1144.97 159.75 1141.8C167.833 1138.55 173.958 1134.59 178.125 1129.92C182.292 1125.26 184.375 1119.97 184.375 1114.05ZM2.5001 768.15L42.3751 765.9L42.3751 766.025C32.6251 768.275 25.0834 771.4 19.7501 775.4C14.4168 779.317 10.5834 784.983 8.2501 792.4C5.83343 799.733 4.29176 809.775 3.6251 822.525L2.6251 841.4L91.3751 841.4L90.1251 813.4C89.7918 806.65 88.7918 801.608 87.1251 798.275C85.3751 794.858 82.7918 792.442 79.3751 791.025C75.8751 789.525 71.4168 788.275 66.0001 787.275L66.0001 787.15L117 787.15L117 787.275C111.583 788.275 107.167 789.525 103.75 791.025C100.25 792.442 97.6668 794.858 96.0001 798.275C94.2501 801.608 93.2084 806.65 92.8751 813.4L91.6251 841.4L164.75 841.4C168.75 841.4 171.958 841.067 174.375 840.4C176.708 839.65 178.542 838.15 179.875 835.9C181.125 833.65 182.125 830.317 182.875 825.9L183 825.9L183 880.9L182.875 880.9C181.958 876.983 180.958 873.983 179.875 871.9C178.792 869.817 177.25 868.4 175.25 867.65C173.167 866.817 170.333 866.4 166.75 866.4L18.7501 866.4C15.0834 866.4 12.2501 866.817 10.2501 867.65C8.2501 868.4 6.70843 869.817 5.6251 871.9C4.45843 873.983 3.45843 876.983 2.6251 880.9L2.5001 880.9L2.5001 768.15ZM183 588.95L183 704.95L182.875 704.95C181.958 701.033 180.958 698.033 179.875 695.95C178.792 693.867 177.25 692.45 175.25 691.7C173.167 690.867 170.333 690.45 166.75 690.45L18.7501 690.45C15.0834 690.45 12.2501 690.867 10.2501 691.7C8.25009 692.45 6.70843 693.867 5.62509 695.95C4.45843 698.033 3.45843 701.033 2.62509 704.95L2.50009 704.95L2.50009 649.95L2.62509 649.95C3.37509 654.367 4.41676 657.7 5.75009 659.95C7.00009 662.2 8.79176 663.7 11.1251 664.45C13.4584 665.117 16.6668 665.45 20.7501 665.45L182.875 665.45L182 646.825C181.5 636.408 180.458 627.742 178.875 620.825C177.292 613.825 174.917 608.117 171.75 603.7C168.5 599.283 164.208 595.742 158.875 593.075C153.542 590.408 146.833 588.158 138.75 586.325L138.75 586.2L183 588.95ZM92.6251 526.75C79.9584 526.75 68.0834 524.708 57.0001 520.625C45.9168 516.458 36.1668 510.542 27.7501 502.875C19.3334 495.208 12.7501 486.042 8.00008 475.375C3.16675 464.625 0.750081 452.667 0.750081 439.5C0.75008 428.333 2.87508 417.458 7.12508 406.875C11.2917 396.292 17.3751 386.792 25.3751 378.375C33.2917 369.875 42.9167 363.167 54.2501 358.25C65.5834 353.25 78.3751 350.75 92.6251 350.75C105.208 350.75 117.083 352.833 128.25 357C139.333 361.083 149.125 367 157.625 374.75C166.125 382.417 172.792 391.583 177.625 402.25C182.375 412.917 184.75 424.833 184.75 438C184.75 449.25 182.625 460.167 178.375 470.75C174.125 481.25 168.042 490.75 160.125 499.25C152.125 507.667 142.458 514.375 131.125 519.375C119.708 524.292 106.875 526.75 92.6251 526.75ZM91.3751 498.75C105.125 498.75 117.667 497.333 129 494.5C140.333 491.667 150.167 487.625 158.5 482.375C166.75 477.042 173.125 470.667 177.625 463.25C182.125 455.75 184.375 447.333 184.375 438C184.375 423.917 180.5 412.542 172.75 403.875C165 395.125 154.333 388.75 140.75 384.75C127.083 380.75 111.458 378.75 93.8751 378.75C80.1251 378.75 67.5834 380.167 56.2501 383C44.9167 385.833 35.1667 389.917 27.0001 395.25C18.7501 400.5 12.3751 406.875 7.87508 414.375C3.37508 421.875 1.12508 430.25 1.12508 439.5C1.12508 453.583 5.00008 465 12.7501 473.75C20.4167 482.417 31.0417 488.75 44.6251 492.75C58.2084 496.75 73.7918 498.75 91.3751 498.75ZM50.3751 157.8C57.6251 157.8 64.1251 159.467 69.8751 162.8C75.6251 166.133 80.4584 170.717 84.3751 176.55C88.2917 182.383 91.0834 189.092 92.7501 196.675L89.8751 196.675L148.5 166.675C157.667 161.925 164.583 158.05 169.25 155.05C173.833 151.967 177.042 149.3 178.875 147.05C180.708 144.717 182.042 142.383 182.875 140.05L183 140.05L183 175.05L96.6251 218.675L96.6251 245.8L167.75 245.8C171 245.8 173.542 245.425 175.375 244.675C177.208 243.842 178.667 242.425 179.75 240.425C180.833 238.425 181.875 235.55 182.875 231.8L183 231.8L183 285.3L182.875 285.3C181.792 281.383 180.708 278.383 179.625 276.3C178.458 274.217 176.875 272.8 174.875 272.05C172.875 271.217 170.167 270.8 166.75 270.8L18.7501 270.8C14.9167 270.8 12.0001 271.217 10.0001 272.05C7.91674 272.8 6.33341 274.217 5.25007 276.3C4.16674 278.383 3.29174 281.383 2.62507 285.3L2.50007 285.3L2.50007 231.3C2.50007 215.133 4.4584 201.633 8.37507 190.8C12.2084 179.883 17.7084 171.675 24.8751 166.175C32.0417 160.592 40.5417 157.8 50.3751 157.8ZM51.3751 183.8C43.2084 183.8 35.5417 185.342 28.3751 188.425C21.1251 191.425 15.2084 196.55 10.6251 203.8C5.9584 211.05 3.41674 221.05 3.00007 233.8L2.62507 245.8L96.5001 245.8L96.0001 229.8C95.5834 216.467 91.6251 205.467 84.1251 196.8C76.6251 188.133 65.7084 183.8 51.3751 183.8ZM156.375 -38.65C162.708 -40.9 167.708 -43.025 171.375 -45.025C174.958 -47.025 177.625 -49.2334 179.375 -51.65C181.042 -54.0667 182.208 -56.9834 182.875 -60.4L183 -60.4L183 -2.02504L182.875 -2.02504C182.375 -6.35837 181.167 -9.60837 179.25 -11.775C177.25 -13.9417 174.417 -15.0667 170.75 -15.15C167 -15.2334 162.208 -14.2334 156.375 -12.15L33.0001 31.1L146.5 69.6C155.333 72.6 162.25 74.3916 167.25 74.975C172.25 75.5583 175.917 74.725 178.25 72.475C180.5 70.225 182.042 66.35 182.875 60.85L183 60.85L183 99.1L182.875 99.1C182.208 95.5166 180.833 92.4333 178.75 89.85C176.667 87.2666 173.083 84.6833 168 82.1C162.917 79.5166 155.542 76.475 145.875 72.975L2.50006 20.35L2.50006 16.1L156.375 -38.65ZM116.5 60.85L115 60.35L115 -10.275L116.5 -10.4L116.5 60.85Z" fill="#909C96"/>
</svg>
